HIERARCHY
ROOT hip
{
  OFFSET 17.0892 85.3092 45.7703
  CHANNELS 6 Xposition Yposition Zposition Zrotation Xrotation Yrotation
  JOINT abdomen
  {
    OFFSET 0 20.6881 -0.73152
    CHANNELS 3 Zrotation Xrotation Yrotation
    JOINT chest
    {
      OFFSET 0 11.7043 -0.48768
      CHANNELS 3 Zrotation Xrotation Yrotation
      JOINT neck
      {
        OFFSET 0 22.1894 -2.19456
        CHANNELS 3 Zrotation Xrotation Yrotation
        JOINT head
        {
          OFFSET -0.24384 7.07133 1.2192
          CHANNELS 3 Zrotation Xrotation Yrotation
          JOINT leftEye
          {
            OFFSET 4.14528 8.04674 8.04672
            CHANNELS 3 Zrotation Xrotation Yrotation
            End Site
            {
              OFFSET 1 0 0
            }
          }
          JOINT rightEye
          {
            OFFSET -3.6576 8.04674 8.04672
            CHANNELS 3 Zrotation Xrotation Yrotation
            End Site
            {
              OFFSET 1 0 0
            }
          }
        }
      }
      JOINT rCollar
      {
        OFFSET -2.68224 19.2634 -4.8768
        CHANNELS 3 Zrotation Xrotation Yrotation
        JOINT rShldr
        {
          OFFSET -8.77824 -1.95073 1.46304
          CHANNELS 3 Zrotation Xrotation Yrotation
          JOINT rForeArm
          {
            OFFSET -28.1742 -1.7115 0.48768
            CHANNELS 3 Zrotation Xrotation Yrotation
            JOINT rHand
            {
              OFFSET -22.5879 0.773209 7.07136
              CHANNELS 3 Zrotation Xrotation Yrotation
              JOINT rThumb1
              {
                OFFSET -1.2192 -0.487915 3.41376
                CHANNELS 3 Zrotation Xrotation Yrotation
                JOINT rThumb2
                {
                  OFFSET -3.37035 -0.52449 3.41376
                  CHANNELS 3 Zrotation Xrotation Yrotation
                  End Site
                  {
                    OFFSET -1.78271 -1.18214 1.43049
                  }
                }
              }
              JOINT rIndex1
              {
                OFFSET -7.75947 0.938293 5.60832
                CHANNELS 3 Zrotation Xrotation Yrotation
                JOINT rIndex2
                {
                  OFFSET -2.54057 -0.884171 1.56538
                  CHANNELS 3 Zrotation Xrotation Yrotation
                  End Site
                  {
                    OFFSET -1.62519 -0.234802 1.16502
                  }
                }
              }
              JOINT rMid1
              {
                OFFSET -8.24714 1.18213 3.41376
                CHANNELS 3 Zrotation Xrotation Yrotation
                JOINT rMid2
                {
                  OFFSET -3.10165 -0.590103 1.0647
                  CHANNELS 3 Zrotation Xrotation Yrotation
                  End Site
                  {
                    OFFSET -2.48547 -0.328903 0.83742
                  }
                }
              }
              JOINT rRing1
              {
                OFFSET -8.82822 0.546677 1.51678
                CHANNELS 3 Zrotation Xrotation Yrotation
                JOINT rRing2
                {
                  OFFSET -2.60934 -0.819778 -0.0198488
                  CHANNELS 3 Zrotation Xrotation Yrotation
                  End Site
                  {
                    OFFSET -2.33842 -0.294052 0.168128
                  }
                }
              }
              JOINT rPinky1
              {
                OFFSET -8.27202 -0.0477905 -0.4584
                CHANNELS 3 Zrotation Xrotation Yrotation
                JOINT rPinky2
                {
                  OFFSET -1.82734 -0.647385 -0.700984
                  CHANNELS 3 Zrotation Xrotation Yrotation
                  End Site
                  {
                    OFFSET -1.69225 -0.51767 -0.607171
                  }
                }
              }
            }
          }
        }
      }
      JOINT lCollar
      {
        OFFSET 2.68224 19.2634 -4.8768
        CHANNELS 3 Zrotation Xrotation Yrotation
        JOINT lShldr
        {
          OFFSET 8.77824 -1.95073 1.46304
          CHANNELS 3 Zrotation Xrotation Yrotation
          JOINT lForeArm
          {
            OFFSET 28.1742 -1.7115 0.48768
            CHANNELS 3 Zrotation Xrotation Yrotation
            JOINT lHand
            {
              OFFSET 22.5879 0.773209 7.07136
              CHANNELS 3 Zrotation Xrotation Yrotation
              JOINT lThumb1
              {
                OFFSET 1.2192 -0.487915 3.41376
                CHANNELS 3 Zrotation Xrotation Yrotation
                JOINT lThumb2
                {
                  OFFSET 3.37035 -0.52449 3.41376
                  CHANNELS 3 Zrotation Xrotation Yrotation
                  End Site
                  {
                    OFFSET 1.78271 -1.18214 1.43049
                  }
                }
              }
              JOINT lIndex1
              {
                OFFSET 7.75947 0.938293 5.60832
                CHANNELS 3 Zrotation Xrotation Yrotation
                JOINT lIndex2
                {
                  OFFSET 2.54057 -0.884171 1.56538
                  CHANNELS 3 Zrotation Xrotation Yrotation
                  End Site
                  {
                    OFFSET 1.62519 -0.234802 1.16502
                  }
                }
              }
              JOINT lMid1
              {
                OFFSET 8.24714 1.18213 3.41376
                CHANNELS 3 Zrotation Xrotation Yrotation
                JOINT lMid2
                {
                  OFFSET 3.10165 -0.590103 1.0647
                  CHANNELS 3 Zrotation Xrotation Yrotation
                  End Site
                  {
                    OFFSET 2.48547 -0.328903 0.83742
                  }
                }
              }
              JOINT lRing1
              {
                OFFSET 8.82822 0.546677 1.51678
                CHANNELS 3 Zrotation Xrotation Yrotation
                JOINT lRing2
                {
                  OFFSET 2.60934 -0.819778 -0.0198488
                  CHANNELS 3 Zrotation Xrotation Yrotation
                  End Site
                  {
                    OFFSET 2.33842 -0.294052 0.168128
                  }
                }
              }
              JOINT lPinky1
              {
                OFFSET 8.27202 -0.0477905 -0.4584
                CHANNELS 3 Zrotation Xrotation Yrotation
                JOINT lPinky2
                {
                  OFFSET 1.82734 -0.647385 -0.700984
                  CHANNELS 3 Zrotation Xrotation Yrotation
                  End Site
                  {
                    OFFSET 1.69225 -0.51767 -0.607171
                  }
                }
              }
            }
          }
        }
      }
    }
  }
  JOINT rButtock
  {
    OFFSET -8.77824 4.35084 1.2192
    CHANNELS 3 Zrotation Xrotation Yrotation
    JOINT rThigh
    {
      OFFSET 0 -1.70687 -2.19456
      CHANNELS 3 Zrotation Xrotation Yrotation
      JOINT rShin
      {
        OFFSET 0 -36.8199 0.73152
        CHANNELS 3 Zrotation Xrotation Yrotation
        JOINT rFoot
        {
          OFFSET 0.73152 -45.1104 -5.12064
          CHANNELS 3 Zrotation Xrotation Yrotation
          End Site
          {
            OFFSET -1.1221 -3.69964 12.103
          }
        }
      }
    }
  }
  JOINT lButtock
  {
    OFFSET 8.77824 4.35084 1.2192
    CHANNELS 3 Zrotation Xrotation Yrotation
    JOINT lThigh
    {
      OFFSET 0 -1.70687 -2.19456
      CHANNELS 3 Zrotation Xrotation Yrotation
      JOINT lShin
      {
        OFFSET 0 -36.8199 0.73152
        CHANNELS 3 Zrotation Xrotation Yrotation
        JOINT lFoot
        {
          OFFSET -0.73152 -45.1104 -5.12064
          CHANNELS 3 Zrotation Xrotation Yrotation
          End Site
          {
            OFFSET 1.1221 -3.69964 12.103
          }
        }
      }
    }
  }
}
MOTION
Frames:	4
Frame Time:	0.00833333
34.405 85.5069 29.1143 -1.70033 0.00694185 0.0323289 2.23592 -0.000460349 0.0604489 0.615868 0.00897276 0.106603 6.04065e-014 -7.95139e-016 3.9757e-016 1.81652e-013 -6.36111e-015 1.06691e-015 -0 0 0 -0 0 0 3.04629e-014 -9.62863e-017 3.97569e-016 6.38297e-013 -2.14936e-015 6.16232e-015 1.09637e-011 -3.34097e-012 -3.49861e-014 1.25269e-010 2.91592e-012 8.26944e-013 2.95518e-010 -9.15789e-013 1.73022e-012 5.10328e-010 -1.57437e-012 2.97143e-012 2.95524e-010 -9.14409e-013 1.7175e-012 7.73091 5.47488 0.417314 2.95517e-010 -9.15602e-013 1.73022e-012 2.90554 0.965183 0.102902 2.95524e-010 -9.15602e-013 1.73022e-012 10.2786 0.731801 0.0259123 2.95512e-010 -9.13217e-013 1.74294e-012 2.22167 -0.733487 -0.20892 3.03672e-014 -9.60922e-017 4.96962e-017 6.34693e-013 -2.66496e-015 4.57205e-015 1.09346e-011 3.21057e-012 -4.13472e-014 1.25295e-010 -3.65597e-012 8.65111e-013 2.95516e-010 -9.55506e-013 1.73976e-012 5.10347e-010 -1.64117e-012 2.98416e-012 2.95511e-010 -9.52179e-013 1.74931e-012 -7.73091 5.47488 -0.417314 2.95515e-010 -9.5526e-013 1.73658e-012 -2.90554 0.965183 -0.102902 2.95512e-010 -9.5526e-013 1.7342e-012 -10.2786 0.731801 -0.0259123 2.95519e-010 -9.53371e-013 1.72704e-012 -2.22167 -0.733487 0.20892 -2.03217e-016 0 -3.88251e-019 2.21203 -7.80167 -0.224272 0.00521835 8.55964 0.135852 -0.549152 -0.766571 0.0462707 2.03217e-016 0 3.88251e-019 1.18689 -1.92859 -0.00259054 0.00907011 -2.07858 0.0747963 0.510739 3.99848 -0.140126 
34.9751 85.1977 27.9084 -1.45049 0.904326 -0.0372627 1.99831 -2.60075 0.860068 0.159993 0.619457 0.358606 -1.03083 5.29008 -0.630756 2.92379 -7.93678 -0.592874 -0 0 0 -0 0 0 1.55845e-014 2.32797e-015 -1.16437e-015 22.9687 6.47517 -0.389318 -3.97689 -1.7608 6.26123 0.00217727 1.07223 0.15061 3.6294e-010 -1.6798e-011 -4.22385e-011 6.26759e-010 -2.80588e-011 -7.3763e-011 3.62947e-010 -1.6797e-011 -4.22524e-011 7.73091 5.47488 0.417314 3.6294e-010 -1.67983e-011 -4.22375e-011 2.90554 0.965183 0.102902 3.62946e-010 -1.67981e-011 -4.22362e-011 10.2786 0.731801 0.0259123 3.62934e-010 -1.67956e-011 -4.22241e-011 2.22167 -0.733487 -0.20892 1.55131e-014 2.32779e-015 -1.4738e-015 -21.6968 9.713 -2.0271 3.30691 -1.35768 -5.31179 -0.0124114 -2.48846 0.348565 2.88136e-010 2.76269e-010 1.50096e-010 4.97168e-010 4.77571e-010 2.597e-010 2.8813e-010 2.76272e-010 1.50105e-010 -7.73091 5.47488 -0.417314 2.88135e-010 2.76269e-010 1.50093e-010 -2.90554 0.965183 -0.102902 2.8813e-010 2.7627e-010 1.50091e-010 -10.2786 0.731801 -0.0259123 2.88138e-010 2.76272e-010 1.50085e-010 -2.22167 -0.733487 0.20892 -2.03217e-016 0 -3.88251e-019 1.65991 -6.18025 3.00863 0.00620573 8.10903 0.118855 -0.885629 -5.56169 -6.26486 2.03217e-016 0 3.88251e-019 3.31249 -1.0571 -0.0859106 0.0059895 -2.03151 0.0466521 0.36474 0.884491 -1.76729 
34.9597 85.1997 27.9077 -1.17985 1.8517 -0.105976 1.81577 -5.33746 1.70844 -0.324411 1.26313 0.624603 -1.99497 10.8845 -1.31409 5.83658 -16.338 -1.25299 -0 0 0 -0 0 0 -4.59329e-016 4.62951e-015 -3.12154e-015 47.3463 13.2789 -0.814911 -7.78189 -3.56318 12.9258 -0.0017231 2.1734 0.305473 4.46827e-010 -3.45276e-011 -9.65722e-011 7.71607e-010 -5.75816e-011 -1.68539e-010 4.46835e-010 -3.45271e-011 -9.65873e-011 7.73091 5.47488 0.417314 4.46827e-010 -3.45287e-011 -9.657e-011 2.90554 0.965183 0.102902 4.46832e-010 -3.45283e-011 -9.65673e-011 10.2786 0.731801 0.0259123 4.4682e-010 -3.45256e-011 -9.65561e-011 2.22167 -0.733487 -0.20892 -5.03563e-016 4.62891e-015 -3.39176e-015 -43.8319 19.9491 -4.40064 6.53575 -2.75732 -10.9454 0.00771835 -5.15219 0.723944 2.82635e-010 5.90823e-010 3.18548e-010 4.87171e-010 1.02132e-009 5.51182e-010 2.82629e-010 5.90824e-010 3.18555e-010 -7.73091 5.47488 -0.417314 2.82635e-010 5.90822e-010 3.18545e-010 -2.90554 0.965183 -0.102902 2.82628e-010 5.90823e-010 3.18544e-010 -10.2786 0.731801 -0.0259123 2.82636e-010 5.90825e-010 3.18539e-010 -2.22167 -0.733487 0.20892 -2.03217e-016 0 -3.88251e-019 0.871836 -4.4569 6.40118 0.00697262 7.63184 0.100929 -2.39615 -10.4252 -13.0953 2.03217e-016 0 3.88251e-019 5.56361 -0.142147 -0.151185 0.00282417 -1.97336 0.0168117 0.00992723 -2.44433 -3.53691 
35.0321 85.1957 27.9464 -0.944278 2.69908 -0.176628 1.74249 -7.79499 2.47957 -0.767875 1.84025 0.862994 -2.73138 15.8624 -1.95882 8.23977 -23.7996 -1.92537 -0 0 0 -0 0 0 -1.41722e-014 7.17647e-015 -4.28824e-015 69.1837 19.4218 -1.23054 -10.7954 -5.03056 18.8501 -0.0104018 3.21659 0.452465 4.97785e-010 -4.85624e-011 -1.30176e-010 8.59622e-010 -8.10275e-011 -2.27232e-010 4.97793e-010 -4.85621e-011 -1.30192e-010 7.73091 5.47488 0.417314 4.97786e-010 -4.85638e-011 -1.30173e-010 2.90554 0.965183 0.102902 4.9779e-010 -4.85632e-011 -1.30169e-010 10.2786 0.731801 0.0259123 4.97778e-010 -4.85605e-011 -1.30158e-010 2.22167 -0.733487 -0.20892 -1.41952e-014 7.17556e-015 -4.5208e-015 -62.7825 28.9823 -6.85604 9.17483 -3.93325 -15.9695 0.0542544 -7.46428 1.05364 2.73375e-010 8.30719e-010 4.46809e-010 4.7081e-010 1.43599e-009 7.73133e-010 2.73368e-010 8.3072e-010 4.46816e-010 -7.73091 5.47488 -0.417314 2.73375e-010 8.30718e-010 4.46806e-010 -2.90554 0.965183 -0.102902 2.73367e-010 8.30719e-010 4.46806e-010 -10.2786 0.731801 -0.0259123 2.73375e-010 8.30722e-010 4.46802e-010 -2.22167 -0.733487 0.20892 -2.03217e-016 0 -3.88251e-019 0.00741302 -2.92271 9.43014 0.00737239 7.20781 0.0849927 -4.74978 -14.4198 -19.4339 2.03217e-016 0 3.88251e-019 7.57129 0.685872 -0.252528 -3.29113e-005 -1.93737 -0.00963119 -0.458556 -5.32168 -5.04348 
